<svg width="24" height="24" viewBox="0 0 24 24" fill="none" xmlns="http://www.w3.org/2000/svg">
<g clip-path="url(#clip0_209_5099)">
<path d="M6.7998 12.9998L9.6998 15.8998C9.88314 16.0831 9.9748 16.3165 9.9748 16.5998C9.9748 16.8831 9.88314 17.1165 9.6998 17.2998C9.51647 17.4831 9.28314 17.5748 8.9998 17.5748C8.71647 17.5748 8.48314 17.4831 8.2998 17.2998L3.6998 12.6998C3.5998 12.5998 3.52897 12.4915 3.4873 12.3748C3.44564 12.2581 3.4248 12.1331 3.4248 11.9998C3.4248 11.8665 3.44564 11.7415 3.4873 11.6248C3.52897 11.5081 3.5998 11.3998 3.6998 11.2998L8.2998 6.6998C8.48314 6.51647 8.71647 6.4248 8.9998 6.4248C9.28314 6.4248 9.51647 6.51647 9.6998 6.6998C9.88314 6.88314 9.9748 7.11647 9.9748 7.3998C9.9748 7.68314 9.88314 7.91647 9.6998 8.0998L6.7998 10.9998H19.9998C20.2831 10.9998 20.5206 11.0956 20.7123 11.2873C20.904 11.479 20.9998 11.7165 20.9998 11.9998C20.9998 12.2831 20.904 12.5206 20.7123 12.7123C20.5206 12.904 20.2831 12.9998 19.9998 12.9998H6.7998Z" fill="currentColor"/>
</g>
<defs>
<clipPath id="clip0_209_5099">
<rect width="24" height="24" fill="white"/>
</clipPath>
</defs>
</svg>
